<svg width="135" height="99" viewBox="0 0 135 99" fill="none" xmlns="http://www.w3.org/2000/svg">
<path d="M84.498 0.00195312C93.1041 0.2651 99.9999 7.32428 100 15.9941C100 24.6631 93.1057 31.7216 84.501 31.9863C84.4655 31.9874 84.4309 31.9922 84.3975 32H2.5C1.11929 32 0 30.8807 0 29.5C0 28.1193 1.11929 27 2.5 27H84C90.0751 27 95 22.0751 95 16C95 9.92487 90.0751 5 84 5H2.5C1.11929 5 0 3.88071 0 2.5C0 1.11929 1.11929 3.92593e-08 2.5 0H84.4824C84.4875 0.00030629 84.4929 0.00179592 84.498 0.00195312ZM119 0C127.837 0 135 7.16344 135 16C135 24.8366 127.837 32 119 32H89.7402C96.3044 29.6456 101 23.3685 101 15.9941C101 8.63227 96.3203 2.36357 89.7734 0H119Z" fill="#FE6918"/>
<path d="M84.498 40.002C93.1041 40.2651 99.9999 47.3243 100 55.9941C100 64.6631 93.1057 71.7216 84.501 71.9863C84.4655 71.9874 84.4309 71.9922 84.3975 72H51V67H84C90.0751 67 95 62.0751 95 56C95 49.9249 90.0751 45 84 45H2.5C1.11929 45 0 43.8807 0 42.5C0 41.1193 1.11929 40 2.5 40H84.4824C84.4875 40.0003 84.4929 40.0018 84.498 40.002ZM119 40C127.837 40 135 47.1634 135 56C135 64.8366 127.837 72 119 72H89.7402C96.3044 69.6456 101 63.3685 101 55.9941C101 48.6323 96.3203 42.3636 89.7734 40H119Z" fill="#FE6918"/>
<path d="M50.502 67.002C41.8959 67.2651 35.0001 74.3243 35 82.9941C35 91.6631 41.8943 98.7216 50.499 98.9863C50.5345 98.9874 50.5691 98.9922 50.6025 99H132.5C133.881 99 135 97.8807 135 96.5C135 95.1193 133.881 94 132.5 94H51C44.9249 94 40 89.0751 40 83C40 76.9249 44.9249 72 51 72V67H50.5176C50.5125 67.0003 50.5071 67.0018 50.502 67.002ZM16 67C7.16344 67 0 74.1634 0 83C0 91.8366 7.16344 99 16 99H45.2598C38.6956 96.6456 34 90.3685 34 82.9941C34.0001 75.6323 38.6797 69.3636 45.2266 67H16Z" fill="#FE6918"/>
</svg>
