<svg width="24" height="24" viewBox="0 0 24 24" fill="none" xmlns="http://www.w3.org/2000/svg">
<path d="M5.23077 13.8462V19.3847C5.23077 19.5479 5.29561 19.7044 5.41102 19.8199C5.52642 19.9352 5.68295 20 5.84616 20H18.1539C18.3171 20 18.4736 19.9352 18.5891 19.8199C18.7044 19.7044 18.7692 19.5479 18.7692 19.3847V13.8462" stroke="#C2BCB2" stroke-width="1.5" stroke-linecap="round" stroke-linejoin="round"/>
<path d="M13.2308 13.8462V20" stroke="#C2BCB2" stroke-width="1.5" stroke-linecap="round" stroke-linejoin="round"/>
<path d="M5.23077 15.6924H13.2308" stroke="#C2BCB2" stroke-width="1.5" stroke-linecap="round" stroke-linejoin="round"/>
<path d="M4 8.30769L5.84615 4H18.1538L20 8.30769H4Z" stroke="#C2BCB2" stroke-width="1.5" stroke-linecap="round" stroke-linejoin="round"/>
<path d="M9.26769 8.30762V9.53839C9.26769 10.1912 9.00836 10.8173 8.54672 11.279C8.0851 11.7406 7.45899 11.9999 6.80615 11.9999H6.46154C5.8087 11.9999 5.1826 11.7406 4.72097 11.279C4.25934 10.8173 4 10.1912 4 9.53839V8.30762" stroke="#C2BCB2" stroke-width="1.5" stroke-linecap="round" stroke-linejoin="round"/>
<path d="M14.7692 8.30762V9.53839C14.7692 10.1912 14.5099 10.8173 14.0483 11.279C13.5866 11.7406 12.9605 11.9999 12.3077 11.9999H11.6923C11.0395 11.9999 10.4134 11.7406 9.95175 11.279C9.49011 10.8173 9.23077 10.1912 9.23077 9.53839V8.30762" stroke="#C2BCB2" stroke-width="1.5" stroke-linecap="round" stroke-linejoin="round"/>
<path d="M20 8.30762V9.53839C20 10.1912 19.7407 10.8173 19.279 11.279C18.8173 11.7406 18.1913 11.9999 17.5385 11.9999H17.2308C16.578 11.9999 15.9519 11.7406 15.4902 11.279C15.0286 10.8173 14.7692 10.1912 14.7692 9.53839V8.30762" stroke="#C2BCB2" stroke-width="1.5" stroke-linecap="round" stroke-linejoin="round"/>
</svg>
