<svg width="24" height="24" viewBox="0 0 24 24" fill="none" xmlns="http://www.w3.org/2000/svg">
<path d="M5.23047 13.8462V19.3847C5.23047 19.5479 5.29531 19.7044 5.41071 19.8199C5.52611 19.9352 5.68264 20 5.84585 20H18.1535C18.3167 20 18.4733 19.9352 18.5887 19.8199C18.7041 19.7044 18.7689 19.5479 18.7689 19.3847V13.8462" stroke="#C2BCB2" stroke-width="1.5" stroke-linecap="round" stroke-linejoin="round"/>
<path d="M13.2305 13.8462V20" stroke="#C2BCB2" stroke-width="1.5" stroke-linecap="round" stroke-linejoin="round"/>
<path d="M5.23047 15.6924H13.2305" stroke="#C2BCB2" stroke-width="1.5" stroke-linecap="round" stroke-linejoin="round"/>
<path d="M4 8.30769L5.84615 4H18.1538L20 8.30769H4Z" stroke="#C2BCB2" stroke-width="1.5" stroke-linecap="round" stroke-linejoin="round"/>
<path d="M9.26769 8.30762V9.53839C9.26769 10.1912 9.00836 10.8173 8.54672 11.279C8.0851 11.7406 7.45899 11.9999 6.80615 11.9999H6.46154C5.8087 11.9999 5.1826 11.7406 4.72097 11.279C4.25934 10.8173 4 10.1912 4 9.53839V8.30762" stroke="#C2BCB2" stroke-width="1.5" stroke-linecap="round" stroke-linejoin="round"/>
<path d="M14.7689 8.30762V9.53839C14.7689 10.1912 14.5096 10.8173 14.048 11.279C13.5863 11.7406 12.9602 11.9999 12.3074 11.9999H11.692C11.0392 11.9999 10.4131 11.7406 9.95144 11.279C9.4898 10.8173 9.23047 10.1912 9.23047 9.53839V8.30762" stroke="#C2BCB2" stroke-width="1.5" stroke-linecap="round" stroke-linejoin="round"/>
<path d="M20.0003 8.30762V9.53839C20.0003 10.1912 19.741 10.8173 19.2793 11.279C18.8177 11.7406 18.1916 11.9999 17.5388 11.9999H17.2311C16.5783 11.9999 15.9522 11.7406 15.4905 11.279C15.0289 10.8173 14.7695 10.1912 14.7695 9.53839V8.30762" stroke="#C2BCB2" stroke-width="1.5" stroke-linecap="round" stroke-linejoin="round"/>
</svg>
