<svg width="26" height="26" viewBox="0 0 26 26" fill="none" xmlns="http://www.w3.org/2000/svg">
<path d="M19.7905 24.1429C19.3172 24.1429 18.9333 23.759 18.9333 23.2857C18.9333 22.8124 19.3172 22.4286 19.7905 22.4286C20.264 22.4286 20.6476 22.8124 20.6476 23.2857C20.6476 23.759 20.264 24.1429 19.7905 24.1429Z" stroke="#807E79" stroke-width="2" stroke-linecap="round" stroke-linejoin="round"/>
<path d="M8.64767 24.1429C8.17429 24.1429 7.79053 23.759 7.79053 23.2857C7.79053 22.8124 8.17429 22.4286 8.64767 22.4286C9.12107 22.4286 9.50481 22.8124 9.50481 23.2857C9.50481 23.759 9.12107 24.1429 8.64767 24.1429Z" stroke="#807E79" stroke-width="2" stroke-linecap="round" stroke-linejoin="round"/>
<path d="M1.88306 1.85715H6.16877L6.6199 6.14286M6.6199 6.14286L7.7215 16.608C7.81334 17.4805 8.54906 18.1429 9.42636 18.1429H20.2588C21.0455 18.1429 21.7312 17.6075 21.922 16.8444L24.0649 8.27293C24.3354 7.19096 23.517 6.14286 22.4017 6.14286H6.6199Z" stroke="#807E79" stroke-width="2" stroke-linecap="round" stroke-linejoin="round"/>
<path d="M17.4908 12.1429H12.3479" stroke="#807E79" stroke-width="2" stroke-linecap="round" stroke-linejoin="round"/>
</svg>
