<svg width="44" height="44" viewBox="0 0 44 44" fill="none" xmlns="http://www.w3.org/2000/svg">
<path d="M28.7907 33.1429C28.3174 33.1429 27.9336 32.759 27.9336 32.2857C27.9336 31.8124 28.3174 31.4286 28.7907 31.4286C29.2642 31.4286 29.6479 31.8124 29.6479 32.2857C29.6479 32.759 29.2642 33.1429 28.7907 33.1429Z" stroke="currentColor" stroke-width="2" stroke-linecap="round" stroke-linejoin="round"/>
<path d="M17.6482 33.1429C17.1748 33.1429 16.791 32.759 16.791 32.2857C16.791 31.8124 17.1748 31.4286 17.6482 31.4286C18.1216 31.4286 18.5053 31.8124 18.5053 32.2857C18.5053 32.759 18.1216 33.1429 17.6482 33.1429Z" stroke="currentColor" stroke-width="2" stroke-linecap="round" stroke-linejoin="round"/>
<path d="M10.8833 10.8571H15.169L15.6201 15.1429M15.6201 15.1429L16.7217 25.608C16.8136 26.4805 17.5493 27.1429 18.4266 27.1429H29.2591C30.0458 27.1429 30.7315 26.6075 30.9223 25.8444L33.0651 17.2729C33.3356 16.191 32.5172 15.1429 31.4019 15.1429H15.6201Z" stroke="currentColor" stroke-width="2" stroke-linecap="round" stroke-linejoin="round"/>
<path d="M26.491 21.1429H21.3481" stroke="currentColor" stroke-width="2" stroke-linecap="round" stroke-linejoin="round"/>
</svg>
