<svg width="24" height="24" viewBox="0 0 24 24" fill="none" xmlns="http://www.w3.org/2000/svg">
<path d="M5.23096 13.8462V19.3847C5.23096 19.5479 5.29579 19.7044 5.4112 19.8199C5.5266 19.9352 5.68313 20 5.84634 20H18.154C18.3172 20 18.4738 19.9352 18.5892 19.8199C18.7046 19.7044 18.7694 19.5479 18.7694 19.3847V13.8462" fill="#090707"/>
<path d="M5.23096 13.8462V19.3847C5.23096 19.5479 5.29579 19.7044 5.4112 19.8199C5.5266 19.9352 5.68313 20 5.84634 20H18.154C18.3172 20 18.4738 19.9352 18.5892 19.8199C18.7046 19.7044 18.7694 19.5479 18.7694 19.3847V13.8462" stroke="#090707" stroke-width="1.5" stroke-linecap="round" stroke-linejoin="round"/>
<path d="M13.231 13.8462V20" stroke="#FBF7EC" stroke-width="1.5" stroke-linecap="square"/>
<path d="M5.23096 15.6923H13.231" stroke="#FBF7EC" stroke-width="1.5" stroke-linecap="square"/>
<path d="M4 8.30769L5.84615 4H18.1538L20 8.30769H4Z" fill="#090707" stroke="#090707" stroke-width="1.5" stroke-linecap="round" stroke-linejoin="round"/>
<path d="M9.26769 8.30774V9.53851C9.26769 10.1913 9.00836 10.8174 8.54672 11.2791C8.0851 11.7407 7.45899 12 6.80615 12H6.46154C5.8087 12 5.1826 11.7407 4.72097 11.2791C4.25934 10.8174 4 10.1913 4 9.53851V8.30774" fill="#090707"/>
<path d="M9.26769 8.30774V9.53851C9.26769 10.1913 9.00836 10.8174 8.54672 11.2791C8.0851 11.7407 7.45899 12 6.80615 12H6.46154C5.8087 12 5.1826 11.7407 4.72097 11.2791C4.25934 10.8174 4 10.1913 4 9.53851V8.30774" stroke="#090707" stroke-width="1.5" stroke-linecap="round" stroke-linejoin="round"/>
<path d="M14.7694 8.30774V9.53851C14.7694 10.1913 14.5101 10.8174 14.0484 11.2791C13.5868 11.7407 12.9607 12 12.3079 12H11.6925C11.0397 12 10.4136 11.7407 9.95193 11.2791C9.49029 10.8174 9.23096 10.1913 9.23096 9.53851V8.30774" fill="#090707"/>
<path d="M14.7694 8.30774V9.53851C14.7694 10.1913 14.5101 10.8174 14.0484 11.2791C13.5868 11.7407 12.9607 12 12.3079 12H11.6925C11.0397 12 10.4136 11.7407 9.95193 11.2791C9.49029 10.8174 9.23096 10.1913 9.23096 9.53851V8.30774" stroke="#090707" stroke-width="1.5" stroke-linecap="round" stroke-linejoin="round"/>
<path d="M19.9998 8.30774V9.53851C19.9998 10.1913 19.7405 10.8174 19.2788 11.2791C18.8172 11.7407 18.1911 12 17.5383 12H17.2306C16.5778 12 15.9517 11.7407 15.49 11.2791C15.0284 10.8174 14.769 10.1913 14.769 9.53851V8.30774" fill="#090707"/>
<path d="M19.9998 8.30774V9.53851C19.9998 10.1913 19.7405 10.8174 19.2788 11.2791C18.8172 11.7407 18.1911 12 17.5383 12H17.2306C16.5778 12 15.9517 11.7407 15.49 11.2791C15.0284 10.8174 14.769 10.1913 14.769 9.53851V8.30774" stroke="#090707" stroke-width="1.5" stroke-linecap="round" stroke-linejoin="round"/>
</svg>
