<svg width="24" height="24" viewBox="0 0 24 24" fill="none" xmlns="http://www.w3.org/2000/svg">
<path d="M19 18.6846V11H5V18.6846C5 19.4111 5.59405 20 6.32683 20H17.6732C18.406 20 19 19.4111 19 18.6846Z" fill="#090707" stroke="#090707" stroke-width="1.5" stroke-linecap="round" stroke-linejoin="round"/>
<path d="M12 19.9998V11.1401" stroke="#FBF7EC" stroke-width="1.5" stroke-linecap="square" stroke-linejoin="round"/>
<path d="M5.75 12.5H18.25" stroke="#FBF7EC" stroke-width="1.5"/>
<path d="M20 9.15349V9.84651C20 10.4836 19.4165 11 18.6966 11H5.30337C4.58354 11 4 10.4836 4 9.84651V9.15349C4 8.51644 4.58354 8 5.30337 8H18.6966C19.4165 8 20 8.51644 20 9.15349Z" fill="#090707" stroke="#090707" stroke-width="1.5" stroke-linecap="round" stroke-linejoin="round"/>
<path d="M12 8C12 6.8 10.7658 4 8.91456 4C5.90284 4 6.99994 8 8.44143 8" stroke="#090707" stroke-width="1.5" stroke-linecap="round" stroke-linejoin="round"/>
<path d="M12 8C12 6.8 13.2342 4 15.0854 4C18.0972 4 17 8 15.5586 8" stroke="#090707" stroke-width="1.5" stroke-linecap="round" stroke-linejoin="round"/>
</svg>
