<svg width="18" height="16" viewBox="0 0 18 16" fill="none" xmlns="http://www.w3.org/2000/svg">
<path d="M12.666 0.75C15.1077 0.750114 17.0272 2.58363 17.0273 5.33594C17.0273 6.93548 16.3387 8.58729 15.0078 10.2422C13.6768 11.8972 11.7354 13.5137 9.3252 15.0225V15.0234C9.20721 15.0974 9.08908 15.1619 8.98828 15.2061C8.94571 15.2247 8.91238 15.2359 8.88867 15.2432C8.86499 15.2359 8.8314 15.2246 8.78906 15.2061C8.68843 15.1619 8.57086 15.0973 8.45312 15.0234C6.04703 13.5145 4.1057 11.8965 2.77344 10.2412C1.44133 8.58601 0.75 6.93488 0.75 5.33594C0.750112 2.58439 2.66964 0.75 5.12109 0.75C6.56018 0.750095 7.64315 1.38695 8.27148 2.2959C8.411 2.49778 8.64132 2.61926 8.88672 2.62012C9.13188 2.62083 9.36208 2.50146 9.50293 2.30078C10.1498 1.37852 11.2272 0.75 12.666 0.75Z" stroke="#C2BCB2" stroke-width="1.5" stroke-linejoin="round"/>
</svg>
