<svg width="362" height="52" viewBox="0 0 362 52" fill="none" xmlns="http://www.w3.org/2000/svg">
<rect width="362" height="52" rx="4" fill="#FEE500"/>
<g clip-path="url(#clip0_595_7471)">
<path fill-rule="evenodd" clip-rule="evenodd" d="M126.5 18.5333C122.082 18.5333 118.5 21.3004 118.5 24.7132C118.5 26.8356 119.885 28.7067 121.995 29.8196L121.107 33.0618C121.029 33.3483 121.356 33.5767 121.608 33.4106L125.499 30.8429C125.827 30.8746 126.161 30.8931 126.5 30.8931C130.918 30.8931 134.5 28.1261 134.5 24.7132C134.5 21.3004 130.918 18.5333 126.5 18.5333Z" fill="black"/>
</g>
<path d="M149.363 21.0059C149.35 24.8477 148.42 28.0469 143.771 30.3711L142.814 29.0586C144.893 28.0264 146.13 26.8711 146.834 25.4902L143.156 25.832L142.938 24.3418L147.367 24.0684C147.49 23.5488 147.579 22.9883 147.627 22.4004H143.594V21.0059H149.363ZM152.686 19.8164V24.5879H154.449V26.0234H152.686V32.2305H150.936V19.8164H152.686ZM161.463 21.0059C161.449 24.8477 160.52 28.0469 155.871 30.3711L154.914 29.0586C156.992 28.0264 158.229 26.8711 158.934 25.4902L155.256 25.832L155.037 24.3418L159.467 24.0684C159.59 23.5488 159.679 22.9883 159.727 22.4004H155.693V21.0059H161.463ZM164.785 19.8164V24.5879H166.549V26.0234H164.785V32.2305H163.035V19.8164H164.785ZM172.742 20.459C175.422 20.459 177.418 21.8125 177.432 23.8633C177.418 25.7363 175.839 27.001 173.604 27.2539V29.373H178.457V30.8086H167.068V29.373H171.867V27.2402C169.639 27.001 168.066 25.7295 168.066 23.8633C168.066 21.8125 170.062 20.459 172.742 20.459ZM172.742 21.8535C171.006 21.8535 169.789 22.6191 169.789 23.8633C169.789 25.1758 171.006 25.9141 172.742 25.9141C174.492 25.9141 175.695 25.1758 175.709 23.8633C175.695 22.6191 174.492 21.8535 172.742 21.8535ZM190.557 29.4414V30.877H179.168V29.4414H183.967V27.5684H180.48V23.3848H187.521V22.0176H180.467V20.623H189.244V24.752H182.23V26.1465H189.531V27.5684H185.703V29.4414H190.557ZM199.334 22.6328C199.334 24.916 200.373 27.2129 202.479 28.1016L201.453 29.4961C200.031 28.8535 199.047 27.6162 198.486 26.0781C197.919 27.7529 196.9 29.1064 195.383 29.7969L194.33 28.3477C196.504 27.4316 197.557 25.0527 197.57 22.6328V20.7734H199.334V22.6328ZM204.912 19.8164V32.2852H203.148V19.8164H204.912ZM213.662 20.541V21.9355H211.188C211.201 23.3916 212.062 24.8818 214.086 25.5312L213.197 26.8848C211.816 26.4404 210.866 25.5518 210.326 24.4375C209.772 25.6543 208.781 26.6182 207.332 27.0898L206.402 25.75C208.46 25.0869 209.396 23.4941 209.424 21.9355H206.881V20.541H213.662ZM216.465 19.8164V22.8379H218.146V24.2871H216.465V27.3223H214.715V19.8164H216.465ZM216.465 27.8555V32.2578H214.715V29.2363H208.084V27.8555H216.465ZM228.51 19.8164V24.6836H230.342V26.1191H228.51V32.2578H226.787V19.8164H228.51ZM225.939 21.6758V23.0703H218.625V21.6758H221.441V20.0078H223.191V21.6758H225.939ZM222.316 23.7676C224.135 23.7676 225.488 24.998 225.488 26.7344C225.488 28.4707 224.135 29.7012 222.316 29.7012C220.484 29.7012 219.131 28.4707 219.131 26.7344C219.131 24.998 220.484 23.7676 222.316 23.7676ZM222.316 25.1758C221.441 25.1895 220.799 25.7773 220.799 26.7344C220.799 27.7051 221.441 28.2793 222.316 28.2656C223.191 28.2793 223.82 27.7051 223.82 26.7344C223.82 25.7773 223.191 25.1895 222.316 25.1758ZM241.252 19.8164V32.2578H239.488V19.8164H241.252ZM237.52 21.1152C237.52 24.8887 236.193 28.0195 231.75 30.125L230.834 28.7305C234.047 27.2129 235.462 25.2441 235.742 22.4824H231.504V21.1152H237.52Z" fill="black"/>
<defs>
<clipPath id="clip0_595_7471">
<rect width="16" height="16.0001" fill="white" transform="translate(118.5 18)"/>
</clipPath>
</defs>
</svg>
