<svg width="402" height="326" viewBox="0 0 402 326" fill="none" xmlns="http://www.w3.org/2000/svg">
<path d="M73.6719 269H70.7969L74.6406 257.688H78.1719L82 269H79.1406L78.375 266.578H74.4375L73.6719 269ZM75.0781 264.547H77.7344L76.4531 260.484H76.3594L75.0781 264.547ZM85.8594 257.688V269H83.2031V257.688H85.8594ZM98.4688 256.156V261.547H100.391V263.391H98.4688V270.453H96.2188V256.156H98.4688ZM94.5938 257.594C94.5938 261.953 93 265.672 88.125 268.062L86.8594 266.344C90.1484 264.695 91.9141 262.555 92.3125 259.438H87.7188V257.594H94.5938ZM117.578 264.719V266.547H112.141V270.516H109.891V266.547H104.5V264.719H117.578ZM116.406 257.766V259.531H112.219C112.5 260.641 113.898 261.984 116.922 262.312L116.109 264.062C113.656 263.805 111.961 262.852 111.031 261.625C110.102 262.867 108.398 263.797 105.922 264.062L105.109 262.312C108.156 261.977 109.555 260.656 109.844 259.531H105.656V257.766H109.891V256.188H112.141V257.766H116.406ZM126.516 257.766V259.531H123.734C123.742 261.039 124.633 262.672 127.031 263.406L125.953 265.141C124.375 264.695 123.289 263.758 122.656 262.578C122.016 263.859 120.914 264.867 119.266 265.359L118.188 263.609C120.57 262.906 121.477 261.18 121.484 259.531H118.719V257.766H121.484V256.25H123.75V257.766H126.516ZM130.469 256.172V266.781H128.234V262.078H126.047V260.281H128.234V256.172H130.469ZM130.797 268.469V270.266H120.859V265.891H123.109V268.469H130.797ZM138.984 258.25V260.031H132.141V258.25H134.484V256.547H136.703V258.25H138.984ZM135.609 260.578C137.453 260.578 138.766 262 138.766 264.016C138.766 266.047 137.453 267.484 135.609 267.484C133.766 267.484 132.422 266.047 132.422 264.016C132.422 262 133.766 260.578 135.609 260.578ZM135.609 262.438C134.875 262.422 134.391 263 134.391 264.016C134.391 265.047 134.875 265.578 135.609 265.578C136.297 265.578 136.797 265.047 136.797 264.016C136.797 263 136.297 262.422 135.609 262.438ZM144.609 256.156V270.5H142.469V263.719H141.547V269.906H139.453V256.422H141.547V261.922H142.469V256.156H144.609ZM159.062 263.984V265.781H153.594V270.5H151.359V265.781H145.984V263.984H159.062ZM157.906 256.875V258.609H153.891C154.109 259.859 155.453 261.18 158.5 261.516L157.672 263.281C155.094 262.961 153.383 261.93 152.531 260.531C151.664 261.93 149.961 262.961 147.406 263.281L146.578 261.516C149.57 261.18 150.93 259.859 151.188 258.609H147.156V256.875H157.906ZM171.469 259.938V261.688H161.391V256.672H163.625V259.938H171.469ZM172.906 263.078V264.844H159.797V263.078H172.906ZM171.562 268.391V270.188H161.25V265.922H163.5V268.391H171.562ZM181.078 256.406V257.281H186.406V256.406H188.625V261.25H178.875V256.406H181.078ZM181.078 259.578H186.406V258.891H181.078V259.578ZM190.297 261.891V263.625H177.219V261.891H190.297ZM188.734 264.312V268.078H180.922V268.734H189.078V270.422H178.703V266.531H186.5V265.953H178.703V264.312H188.734ZM202.422 256.156V261.484H204.453V263.344H202.422V270.531H200.203V256.156H202.422ZM198.297 257.328V263H193.891V265.359C195.812 265.352 197.469 265.266 199.281 264.969L199.484 266.75C197.312 267.156 195.312 267.234 192.875 267.234H191.656V261.25H196.047V259.125H191.641V257.328H198.297ZM216.922 256.172V266.422H214.672V256.172H216.922ZM217.281 268.469V270.266H207.203V265.391H209.484V268.469H217.281ZM209.031 257.062C211.25 257.062 213 258.594 213 260.703C213 262.859 211.25 264.375 209.031 264.375C206.812 264.375 205.047 262.859 205.062 260.703C205.047 258.594 206.812 257.062 209.031 257.062ZM209.031 259.016C208.016 259 207.25 259.625 207.25 260.703C207.25 261.828 208.016 262.422 209.031 262.422C210 262.422 210.766 261.828 210.766 260.703C210.766 259.625 210 259 209.031 259.016ZM230.422 262.719V264.5H220.203V257.312H230.328V259.125H222.422V262.719H230.422ZM231.812 266.969V268.828H218.703V266.969H231.812ZM245.609 262.938V264.703H240.172V265.781H244.031V270.5H241.781V267.562H233.984V265.781H237.922V264.703H232.531V262.938H245.609ZM236.391 256.516V257.719H241.719V256.516H243.938V262.125H234.188V256.516H236.391ZM236.391 260.359H241.719V259.359H236.391V260.359ZM252.891 256.344C256.234 256.359 258.141 257.219 258.156 258.781C258.141 260.375 256.234 261.234 252.891 261.234C249.547 261.234 247.625 260.375 247.625 258.781C247.625 257.219 249.547 256.359 252.891 256.344ZM252.891 257.984C250.875 257.984 249.984 258.25 249.984 258.781C249.984 259.391 250.875 259.578 252.891 259.594C254.938 259.578 255.828 259.391 255.828 258.781C255.828 258.25 254.938 257.984 252.891 257.984ZM259.438 261.812V263.594H246.359V261.812H259.438ZM257.875 264.281V268.078H250.062V268.734H258.219V270.422H247.844V266.516H255.641V265.906H247.844V264.281H257.875ZM271.094 257.312V264.281H264.141V257.312H271.094ZM266.359 259.094V262.531H268.875V259.094H266.359ZM275.188 256.172V260.219H277.047V262.062H275.188V266.609H272.938V256.172H275.188ZM275.656 268.469V270.266H265.781V265.562H268.031V268.469H275.656ZM290.891 261.5V263.328H288.969V270.453H286.719V256.156H288.969V261.5H290.891ZM280.25 257.516V265.141C282 265.102 283.898 264.93 285.875 264.547L286.109 266.406C283.734 266.891 281.375 267 279.281 267H278V257.516H280.25ZM304.531 267.062V268.891H291.422V267.062H296.844V264.547H292.766V257.047H295.016V259.156H300.875V257.047H303.125V264.547H299.062V267.062H304.531ZM295.016 262.766H300.875V260.922H295.016V262.766ZM309.953 259.609C309.953 261.953 310.438 264.328 312.438 265.625L311.219 267.359C310.047 266.648 309.305 265.516 308.875 264.156C308.367 265.672 307.555 266.938 306.312 267.688L304.953 266.016C307.109 264.656 307.766 262.141 307.766 259.719V257.344H309.953V259.609ZM317.719 256.156V270.5H315.562V256.156H317.719ZM314.703 256.344V269.859H312.609V262.719H310.938V260.891H312.609V256.344H314.703ZM332.188 267.047V268.875H319.078V267.047H321.906V263.641C320.836 262.961 320.188 261.945 320.188 260.688C320.188 258.344 322.484 256.797 325.609 256.797C328.734 256.797 331.062 258.344 331.062 260.688C331.062 261.922 330.43 262.922 329.391 263.594V267.047H332.188ZM325.609 258.562C323.656 258.547 322.406 259.312 322.422 260.688C322.406 262.047 323.656 262.844 325.609 262.844C327.547 262.844 328.828 262.047 328.828 260.688C328.828 259.312 327.547 258.547 325.609 258.562ZM324.125 267.047H327.109V264.453C326.633 264.539 326.133 264.578 325.609 264.578C325.086 264.578 324.594 264.539 324.125 264.453V267.047Z" fill="#807E79"/>
<g clip-path="url(#clip0_661_8303)">
<circle opacity="0.4" cx="273" cy="104" r="80" fill="url(#paint0_radial_661_8303)"/>
<circle opacity="0.6" cx="115" cy="210" r="50" fill="url(#paint1_radial_661_8303)"/>
<g clip-path="url(#clip1_661_8303)">
<mask id="path-4-inside-1_661_8303" fill="white">
<path d="M141 108C141 92.536 153.536 80 169 80H233C248.464 80 261 92.536 261 108V240H141V108Z"/>
</mask>
<path d="M141 108C141 92.536 153.536 80 169 80H233C248.464 80 261 92.536 261 108V240H141V108Z" fill="white"/>
<path d="M133 108C133 88.1177 149.118 72 169 72H233C252.882 72 269 88.1177 269 108H253C253 96.9543 244.046 88 233 88H169C157.954 88 149 96.9543 149 108H133ZM261 240H141H261ZM133 240V108C133 88.1177 149.118 72 169 72V88C157.954 88 149 96.9543 149 108V240H133ZM233 72C252.882 72 269 88.1177 269 108V240H253V108C253 96.9543 244.046 88 233 88V72Z" fill="#C2BCB2" mask="url(#path-4-inside-1_661_8303)"/>
<path d="M157 192H245" stroke="#C2BCB2"/>
<path d="M157 204H245" stroke="#C2BCB2"/>
<path d="M157 216H245" stroke="#C2BCB2"/>
<path d="M157 228H245" stroke="#C2BCB2"/>
<path d="M175 124C175 119.582 178.582 116 183 116H227V181H183C178.582 181 175 177.418 175 173V124Z" fill="#FE6918"/>
</g>
</g>
<defs>
<radialGradient id="paint0_radial_661_8303" cx="0" cy="0" r="1" gradientUnits="userSpaceOnUse" gradientTransform="translate(273 104) rotate(90) scale(80)">
<stop offset="0.2" stop-color="#FE6918"/>
<stop offset="1" stop-color="#FEC518" stop-opacity="0"/>
</radialGradient>
<radialGradient id="paint1_radial_661_8303" cx="0" cy="0" r="1" gradientUnits="userSpaceOnUse" gradientTransform="translate(115 210) rotate(90) scale(50)">
<stop offset="0.2" stop-color="#FE6918"/>
<stop offset="1" stop-color="#FEC518" stop-opacity="0"/>
</radialGradient>
<clipPath id="clip0_661_8303">
<rect width="400" height="240" fill="white" transform="translate(1)"/>
</clipPath>
<clipPath id="clip1_661_8303">
<rect width="120" height="160" fill="white" transform="translate(141 80)"/>
</clipPath>
</defs>
</svg>
