<svg width="402" height="326" viewBox="0 0 402 326" fill="none" xmlns="http://www.w3.org/2000/svg">
<path d="M74.6328 260.531V262.328H64.4453V256.781H66.6953V260.531H74.6328ZM75.9609 263.781V265.609H70.4609V270.5H68.1953V265.609H62.8516V263.781H75.9609ZM88.2891 256.797V258.062C88.2891 259.258 88.2891 260.531 88.0078 262.156H89.7891V263.922H84.4609V266.859H82.2109V263.922H76.6797V262.156H85.7266C85.9922 260.75 86.0312 259.641 86.0391 258.594H78.2578V256.797H88.2891ZM88.4766 268.469V270.266H78.1484V265.562H80.3984V268.469H88.4766ZM101.883 256.156V261.547H103.805V263.391H101.883V270.453H99.6328V256.156H101.883ZM98.0078 257.594C98.0078 261.953 96.4141 265.672 91.5391 268.062L90.2734 266.344C93.5625 264.695 95.3281 262.555 95.7266 259.438H91.1328V257.594H98.0078ZM108.961 257.094C111.242 257.078 112.961 258.578 112.977 260.656C112.961 262.734 111.242 264.234 108.961 264.219C106.695 264.234 104.945 262.734 104.945 260.656C104.945 258.578 106.695 257.078 108.961 257.094ZM108.961 259.031C107.961 259.031 107.18 259.609 107.18 260.656C107.18 261.734 107.961 262.281 108.961 262.281C109.992 262.281 110.773 261.734 110.789 260.656C110.773 259.609 109.992 259.031 108.961 259.031ZM116.461 256.156V270.531H114.227V256.156H116.461ZM104.398 265.859C106.914 265.859 110.43 265.828 113.461 265.406L113.633 267.031C110.492 267.641 107.133 267.672 104.648 267.672L104.398 265.859ZM130.367 257.531V259.266H127.648C127.719 260.297 128.617 261.25 130.742 261.609L129.867 263.312C128.266 263.039 127.18 262.367 126.539 261.469C125.914 262.469 124.805 263.219 123.133 263.531L122.211 261.797C124.391 261.422 125.289 260.383 125.367 259.266H122.633V257.531H125.398V256.188H127.633V257.531H130.367ZM133.914 256.172V270.484H131.664V256.172H133.914ZM121.805 264.016C124.398 264.016 127.898 264 130.867 263.625L131.023 265.25C129.906 265.445 128.75 265.578 127.617 265.656V270.047H125.367V265.781C124.188 265.82 123.07 265.828 122.07 265.828L121.805 264.016ZM148.773 258.125V259.938H146.992V261.234H148.773V263.047H146.992V265.219H144.742V256.156H146.992V258.125H148.773ZM142.258 265.359C145.227 265.359 147.148 266.328 147.148 267.938C147.148 269.531 145.227 270.516 142.258 270.5C139.227 270.516 137.352 269.531 137.352 267.938C137.352 266.328 139.227 265.359 142.258 265.359ZM142.258 267.062C140.477 267.062 139.57 267.312 139.586 267.938C139.57 268.531 140.477 268.844 142.258 268.844C143.992 268.844 144.883 268.531 144.883 267.938C144.883 267.312 143.992 267.062 142.258 267.062ZM144.055 257.438V259.188H135.555V257.438H138.68V256.094H140.93V257.438H144.055ZM139.805 259.594C141.898 259.594 143.367 260.656 143.367 262.188C143.367 263.734 141.898 264.766 139.805 264.781C137.695 264.766 136.211 263.734 136.227 262.188C136.211 260.656 137.695 259.594 139.805 259.594ZM139.805 261.234C138.977 261.234 138.414 261.547 138.414 262.188C138.414 262.828 138.977 263.125 139.805 263.109C140.648 263.125 141.227 262.828 141.227 262.188C141.227 261.547 140.648 261.234 139.805 261.234ZM161.445 256.156V270.531H159.18V256.156H161.445ZM153.617 257.141C155.789 257.141 157.414 259.125 157.43 262.266C157.414 265.453 155.789 267.438 153.617 267.438C151.398 267.438 149.773 265.453 149.773 262.266C149.773 259.125 151.398 257.141 153.617 257.141ZM153.617 259.172C152.602 259.172 151.945 260.219 151.961 262.266C151.945 264.344 152.602 265.391 153.617 265.391C154.602 265.391 155.258 264.344 155.258 262.266C155.258 260.219 154.602 259.172 153.617 259.172ZM178.227 256.156V259.297H180.086V261.141H178.227V264.172H175.977V256.156H178.227ZM173.727 257.031V258.812H169.57V261.953C172.07 261.945 173.43 261.836 174.93 261.531L175.164 263.297C173.43 263.703 171.789 263.75 168.555 263.75H167.32V257.031H173.727ZM178.227 264.734V270.328H168.758V264.734H178.227ZM170.977 266.516V268.578H176.008V266.516H170.977ZM192.648 256.172V266.594H190.383V256.172H192.648ZM188.461 257.219C188.461 261.156 186.07 263.875 181.695 265.125L180.836 263.344C183.93 262.461 185.648 260.93 186.023 259.047H181.664V257.219H188.461ZM192.914 268.469V270.266H182.992V265.656H185.242V268.469H192.914ZM211.117 263.031V264.812H198.039V263.031H203.43V261.906H199.602V256.734H209.602V258.5H201.852V260.125H209.742V261.906H205.695V263.031H211.117ZM209.57 265.672V270.516H207.352V267.438H199.492V265.672H209.57ZM223.914 256.172V264.203H221.664V256.172H223.914ZM219.273 256.797V261.188H214.836V262.125C217.164 262.117 218.766 262.086 220.586 261.766L220.867 263.562C218.742 263.922 216.82 263.969 213.914 263.969H212.633V259.5H217.055V258.578H212.617V256.797H219.273ZM216.477 264.75V265.844H221.664V264.75H223.914V270.344H214.242V264.75H216.477ZM216.477 268.547H221.664V267.562H216.477V268.547ZM231.242 259.203C231.242 261.938 232.133 264.562 234.617 265.609L233.258 267.406C231.695 266.656 230.695 265.336 230.117 263.672C229.5 265.445 228.453 266.891 226.836 267.672L225.43 265.828C227.992 264.688 228.945 261.922 228.961 259.203V257.219H231.242V259.203ZM237.852 256.156V270.531H235.633V262.359H233.008V260.547H235.633V256.156H237.852ZM251.664 256.156V264.422H249.43V261.203H247.352V259.375H249.43V256.156H251.664ZM251.664 264.969V270.344H241.945V264.969H251.664ZM244.211 266.734V268.547H249.477V266.734H244.211ZM247.805 256.828V258.625H245.086C245.18 260.141 246.094 261.75 248.289 262.484L247.195 264.25C245.617 263.742 244.562 262.75 243.945 261.516C243.312 262.883 242.211 263.961 240.555 264.484L239.398 262.719C241.711 262 242.656 260.297 242.773 258.625H240.023V256.828H247.805ZM265.07 262.484V264.25H260.992V267.094H266.461V268.922H253.352V267.094H258.773V264.25H254.852V257.125H264.977V258.906H257.102V262.484H265.07ZM276.164 257.5C276.148 259.188 277.023 260.797 279.367 261.453L278.227 263.188C276.688 262.734 275.656 261.836 275.055 260.672C274.406 261.992 273.297 263.023 271.633 263.531L270.539 261.75C272.961 261.031 273.883 259.297 273.883 257.516V256.672H276.164V257.5ZM282.18 256.156V258.859H284.039V260.688H282.18V263.5H279.93V256.156H282.18ZM282.18 264V267.984H274.789V268.656H282.555V270.422H272.57V266.375H279.93V265.734H272.555V264H282.18ZM292.805 257.312V259.094H291.617V265.406C292.141 265.367 292.664 265.32 293.164 265.266L293.305 266.891C290.43 267.375 287.227 267.438 284.742 267.453L284.555 265.625L286.023 265.609V259.094H284.883V257.312H292.805ZM296.742 256.156V270.5H294.523V264.594H292.633V262.812H294.523V261.484H292.633V259.672H294.523V256.156H296.742ZM288.211 265.562L289.43 265.531V259.094H288.211V265.562ZM311.523 267.062V268.891H298.414V267.062H303.836V264.547H299.758V257.047H302.008V259.156H307.867V257.047H310.117V264.547H306.055V267.062H311.523ZM302.008 262.766H307.867V260.922H302.008V262.766ZM316.945 259.609C316.945 261.953 317.43 264.328 319.43 265.625L318.211 267.359C317.039 266.648 316.297 265.516 315.867 264.156C315.359 265.672 314.547 266.938 313.305 267.688L311.945 266.016C314.102 264.656 314.758 262.141 314.758 259.719V257.344H316.945V259.609ZM324.711 256.156V270.5H322.555V256.156H324.711ZM321.695 256.344V269.859H319.602V262.719H317.93V260.891H319.602V256.344H321.695ZM339.18 267.047V268.875H326.07V267.047H328.898V263.641C327.828 262.961 327.18 261.945 327.18 260.688C327.18 258.344 329.477 256.797 332.602 256.797C335.727 256.797 338.055 258.344 338.055 260.688C338.055 261.922 337.422 262.922 336.383 263.594V267.047H339.18ZM332.602 258.562C330.648 258.547 329.398 259.312 329.414 260.688C329.398 262.047 330.648 262.844 332.602 262.844C334.539 262.844 335.82 262.047 335.82 260.688C335.82 259.312 334.539 258.547 332.602 258.562ZM331.117 267.047H334.102V264.453C333.625 264.539 333.125 264.578 332.602 264.578C332.078 264.578 331.586 264.539 331.117 264.453V267.047Z" fill="#807E79"/>
<g clip-path="url(#clip0_661_8329)">
<circle opacity="0.6" cx="201" cy="180" r="140" fill="url(#paint0_radial_661_8329)"/>
<g clip-path="url(#clip1_661_8329)">
<mask id="path-3-inside-1_661_8329" fill="white">
<path d="M141 108C141 92.536 153.536 80 169 80H233C248.464 80 261 92.536 261 108V240H141V108Z"/>
</mask>
<path d="M141 108C141 92.536 153.536 80 169 80H233C248.464 80 261 92.536 261 108V240H141V108Z" fill="white"/>
<path d="M133 108C133 88.1177 149.118 72 169 72H233C252.882 72 269 88.1177 269 108H253C253 96.9543 244.046 88 233 88H169C157.954 88 149 96.9543 149 108H133ZM261 240H141H261ZM133 240V108C133 88.1177 149.118 72 169 72V88C157.954 88 149 96.9543 149 108V240H133ZM233 72C252.882 72 269 88.1177 269 108V240H253V108C253 96.9543 244.046 88 233 88V72Z" fill="#C2BCB2" mask="url(#path-3-inside-1_661_8329)"/>
<path d="M157 192H245" stroke="#C2BCB2"/>
<path d="M157 204H245" stroke="#C2BCB2"/>
<path d="M157 216H245" stroke="#C2BCB2"/>
<path d="M157 228H245" stroke="#C2BCB2"/>
<path d="M173 140H229V164C229 168.418 225.418 172 221 172H181C176.582 172 173 168.418 173 164V140Z" fill="#ECE8E0"/>
<mask id="path-10-outside-2_661_8329" maskUnits="userSpaceOnUse" x="167" y="114" width="68" height="37" fill="black">
<rect fill="white" x="167" y="114" width="68" height="37"/>
<path d="M169 133.231L175.346 118.424C175.976 116.954 177.422 116 179.022 116H222.978C224.578 116 226.024 116.954 226.654 118.424L233 133.231H169Z"/>
<path d="M190.071 133.231V138.154C190.071 140.765 189.033 143.27 187.187 145.116C185.34 146.963 182.836 148 180.225 148H178.846C176.235 148 173.73 146.963 171.884 145.116C170.037 143.27 169 140.765 169 138.154V133.231"/>
<path d="M212.078 133.231V138.154C212.078 140.765 211.04 143.27 209.194 145.116C207.347 146.963 204.843 148 202.232 148H199.77C197.159 148 194.654 146.963 192.808 145.116C190.961 143.27 189.924 140.765 189.924 138.154V133.231"/>
<path d="M233 133.231L232.999 138.154C232.999 140.765 231.962 143.27 230.115 145.116C228.269 146.963 225.764 148 223.153 148H221.922C219.311 148 216.807 146.963 214.96 145.116C213.114 143.27 212.078 140.765 212.078 138.154V133.231"/>
</mask>
<path d="M169 133.231L175.346 118.424C175.976 116.954 177.422 116 179.022 116H222.978C224.578 116 226.024 116.954 226.654 118.424L233 133.231H169Z" fill="#FE6918"/>
<path d="M190.071 133.231V138.154C190.071 140.765 189.033 143.27 187.187 145.116C185.34 146.963 182.836 148 180.225 148H178.846C176.235 148 173.73 146.963 171.884 145.116C170.037 143.27 169 140.765 169 138.154V133.231" fill="#FE6918"/>
<path d="M212.078 133.231V138.154C212.078 140.765 211.04 143.27 209.194 145.116C207.347 146.963 204.843 148 202.232 148H199.77C197.159 148 194.654 146.963 192.808 145.116C190.961 143.27 189.924 140.765 189.924 138.154V133.231" fill="#FE6918"/>
<path d="M233 133.231L232.999 138.154C232.999 140.765 231.962 143.27 230.115 145.116C228.269 146.963 225.764 148 223.153 148H221.922C219.311 148 216.807 146.963 214.96 145.116C213.114 143.27 212.078 140.765 212.078 138.154V133.231" fill="#FE6918"/>
<path d="M213.078 133.231C213.078 132.679 212.63 132.231 212.078 132.231C211.525 132.231 211.078 132.679 211.078 133.231H212.078H213.078ZM211.078 138.154C211.078 138.706 211.525 139.154 212.078 139.154C212.63 139.154 213.078 138.706 213.078 138.154H212.078H211.078ZM212.078 133.231H211.078V138.154H212.078H213.078V133.231H212.078ZM169 133.231L167.162 132.443C167.055 132.692 167 132.96 167 133.231H169ZM233 133.231L235 133.231C235 132.96 234.945 132.692 234.838 132.443L233 133.231ZM192.071 133.231C192.071 132.126 191.175 131.231 190.071 131.231C188.966 131.231 188.071 132.126 188.071 133.231H190.071H192.071ZM187.187 145.116L185.773 143.702L185.773 143.702L187.187 145.116ZM171.884 145.116L173.298 143.702L173.298 143.702L171.884 145.116ZM214.078 138.154C214.078 137.049 213.182 136.154 212.078 136.154C210.973 136.154 210.078 137.049 210.078 138.154H212.078H214.078ZM209.194 145.116L207.78 143.702L207.78 143.702L209.194 145.116ZM192.808 145.116L194.222 143.702L194.222 143.702L192.808 145.116ZM191.924 133.231C191.924 132.126 191.028 131.231 189.924 131.231C188.819 131.231 187.924 132.126 187.924 133.231H189.924H191.924ZM232.999 138.154L230.999 138.154V138.154H232.999ZM230.115 145.116L228.701 143.702L228.701 143.702L230.115 145.116ZM214.96 145.116L213.546 146.531L213.546 146.531L214.96 145.116ZM226.654 118.424L224.816 119.212L226.654 118.424ZM169 133.231L170.838 134.019L177.184 119.212L175.346 118.424L173.507 117.636L167.162 132.443L169 133.231ZM179.022 116V118H222.978V116V114H179.022V116ZM226.654 118.424L224.816 119.212L231.162 134.019L233 133.231L234.838 132.443L228.493 117.636L226.654 118.424ZM233 133.231V131.231H169V133.231V135.231H233V133.231ZM190.071 133.231H188.071V138.154H190.071H192.071V133.231H190.071ZM190.071 138.154H188.071C188.071 140.235 187.244 142.231 185.773 143.702L187.187 145.116L188.601 146.531C190.823 144.309 192.071 141.296 192.071 138.154H190.071ZM187.187 145.116L185.773 143.702C184.301 145.174 182.306 146 180.225 146V148V150C183.366 150 186.38 148.752 188.601 146.53L187.187 145.116ZM180.225 148V146H178.846V148V150H180.225V148ZM178.846 148V146C176.765 146 174.77 145.174 173.298 143.702L171.884 145.116L170.47 146.53C172.691 148.752 175.704 150 178.846 150V148ZM171.884 145.116L173.298 143.702C171.827 142.231 171 140.235 171 138.154H169H167C167 141.296 168.248 144.309 170.47 146.531L171.884 145.116ZM169 138.154H171V133.231H169H167V138.154H169ZM212.078 138.154H210.078C210.078 140.235 209.251 142.231 207.78 143.702L209.194 145.116L210.608 146.531C212.83 144.309 214.078 141.296 214.078 138.154H212.078ZM209.194 145.116L207.78 143.702C206.308 145.174 204.312 146 202.232 146V148V150C205.373 150 208.386 148.752 210.608 146.53L209.194 145.116ZM202.232 148V146H199.77V148V150H202.232V148ZM199.77 148V146C197.689 146 195.693 145.174 194.222 143.702L192.808 145.116L191.393 146.53C193.615 148.752 196.628 150 199.77 150V148ZM192.808 145.116L194.222 143.702C192.75 142.231 191.924 140.235 191.924 138.154H189.924H187.924C187.924 141.296 189.172 144.309 191.394 146.531L192.808 145.116ZM189.924 138.154H191.924V133.231H189.924H187.924V138.154H189.924ZM233 133.231L231 133.23L230.999 138.154L232.999 138.154L234.999 138.154L235 133.231L233 133.231ZM232.999 138.154H230.999C230.999 140.235 230.173 142.231 228.701 143.702L230.115 145.116L231.529 146.531C233.751 144.309 234.999 141.296 234.999 138.154H232.999ZM230.115 145.116L228.701 143.702C227.23 145.174 225.234 146 223.153 146V148V150C226.295 150 229.308 148.752 231.529 146.531L230.115 145.116ZM223.153 148V146H221.922V148V150H223.153V148ZM221.922 148V146C219.842 146 217.846 145.174 216.374 143.702L214.96 145.116L213.546 146.531C215.768 148.752 218.781 150 221.922 150V148ZM214.96 145.116L216.374 143.702C214.903 142.231 214.078 140.236 214.078 138.154H212.078H210.078C210.078 141.295 211.324 144.308 213.546 146.531L214.96 145.116ZM222.978 116V118C223.778 118 224.501 118.477 224.816 119.212L226.654 118.424L228.493 117.636C227.547 115.43 225.378 114 222.978 114V116ZM175.346 118.424L177.184 119.212C177.499 118.477 178.222 118 179.022 118V116V114C176.622 114 174.453 115.43 173.507 117.636L175.346 118.424Z" fill="white" mask="url(#path-10-outside-2_661_8329)"/>
</g>
</g>
<defs>
<radialGradient id="paint0_radial_661_8329" cx="0" cy="0" r="1" gradientUnits="userSpaceOnUse" gradientTransform="translate(201 180) rotate(90) scale(140)">
<stop offset="0.2" stop-color="#FE6918"/>
<stop offset="1" stop-color="#FEC518" stop-opacity="0"/>
</radialGradient>
<clipPath id="clip0_661_8329">
<rect width="400" height="240" fill="white" transform="translate(1)"/>
</clipPath>
<clipPath id="clip1_661_8329">
<rect width="120" height="160" fill="white" transform="translate(141 80)"/>
</clipPath>
</defs>
</svg>
