<svg width="24" height="24" viewBox="0 0 24 24" fill="none" xmlns="http://www.w3.org/2000/svg">
<path d="M7 13.0048V5.00476C7 4.73954 6.89464 4.48519 6.70711 4.29765C6.51957 4.11012 6.26522 4.00476 6 4.00476H4C3.73478 4.00476 3.48043 4.11012 3.29289 4.29765C3.10536 4.48519 3 4.73954 3 5.00476V12.0048C3 12.27 3.10536 12.5243 3.29289 12.7119C3.48043 12.8994 3.73478 13.0048 4 13.0048H7ZM7 13.0048C8.06087 13.0048 9.07828 13.4262 9.82843 14.1763C10.5786 14.9265 11 15.9439 11 17.0048V18.0048C11 18.5352 11.2107 19.0439 11.5858 19.419C11.9609 19.794 12.4696 20.0048 13 20.0048C13.5304 20.0048 14.0391 19.794 14.4142 19.419C14.7893 19.0439 15 18.5352 15 18.0048V13.0048H18C18.5304 13.0048 19.0391 12.794 19.4142 12.419C19.7893 12.0439 20 11.5352 20 11.0048L19 6.00476C18.8562 5.39129 18.5834 4.86452 18.2227 4.5038C17.8619 4.14308 17.4328 3.96794 17 4.00476H10C9.20435 4.00476 8.44129 4.32083 7.87868 4.88344C7.31607 5.44605 7 6.20911 7 7.00476" stroke="#090707" stroke-linecap="round" stroke-linejoin="round"/>
</svg>
