<svg width="24" height="24" viewBox="0 0 24 24" fill="none" xmlns="http://www.w3.org/2000/svg">
<path d="M15.666 4.75C18.1077 4.75011 20.0272 6.58363 20.0273 9.33594C20.0273 10.9355 19.3387 12.5873 18.0078 14.2422C16.6768 15.8972 14.7354 17.5137 12.3252 19.0225V19.0234C12.2072 19.0974 12.0891 19.1619 11.9883 19.2061C11.9457 19.2247 11.9124 19.2359 11.8887 19.2432C11.865 19.2359 11.8314 19.2246 11.7891 19.2061C11.6884 19.1619 11.5709 19.0973 11.4531 19.0234C9.04703 17.5145 7.1057 15.8965 5.77344 14.2412C4.44133 12.586 3.75 10.9349 3.75 9.33594C3.75011 6.58439 5.66964 4.75 8.12109 4.75C9.56018 4.75009 10.6431 5.38695 11.2715 6.2959C11.411 6.49778 11.6413 6.61926 11.8867 6.62012C12.1319 6.62083 12.3621 6.50146 12.5029 6.30078C13.1498 5.37852 14.2272 4.75 15.666 4.75Z" stroke="#C2BCB2" stroke-width="1.5" stroke-linejoin="round"/>
</svg>
